<svg xmlns="http://www.w3.org/2000/svg" viewBox="0 0 80 64" xml:space="preserve" fill="#c7c7c7"><path d="M30.459 31.294c2.757 0 5-2.243 5-5s-2.243-5-5-5-5 2.243-5 5 2.243 5 5 5m0-9c2.206 0 4 1.794 4 4s-1.794 4-4 4-4-1.794-4-4 1.794-4 4-4"/><path d="M60 46.5v-29c0-.827-.673-1.5-1.5-1.5h-37c-.827 0-1.5.673-1.5 1.5v29c0 .827.673 1.5 1.5 1.5h37c.827 0 1.5-.673 1.5-1.5m-39 0v-29a.5.5 0 0 1 .5-.5h37a.5.5 0 0 1 .5.5v29a.5.5 0 0 1-.5.5h-37a.5.5 0 0 1-.5-.5"/><path d="M47.73 27.086a1.375 1.375 0 0 0-1.938.003L34.646 38.235a.37.37 0 0 1-.519.008l-2.583-2.429a1.37 1.37 0 0 0-1.912.03l-6.986 6.99a.5.5 0 0 0 .708.708l6.986-6.989a.373.373 0 0 1 .52-.008l2.583 2.428a1.365 1.365 0 0 0 1.911-.029l11.145-11.146a.37.37 0 0 1 .526-.001l9.622 9.566a.5.5 0 1 0 .705-.709z"/></svg>