<svg width="197" height="114" viewBox="0 0 197 114" fill="none" xmlns="http://www.w3.org/2000/svg">
<path d="M185.274 85.5293C169.653 101.15 146.621 103.121 131 87.5L161 57L131 27C146.621 11.379 169.653 13.3398 185.274 28.9608C200.895 44.5817 200.895 69.9083 185.274 85.5293Z" fill="#35C8A3"/>
<path fill-rule="evenodd" clip-rule="evenodd" d="M128.779 29.0336L156.99 57.245L128.779 85.4564C128.079 84.8532 127.396 84.2197 126.732 83.5559C112.201 69.0248 112.201 45.4652 126.732 30.934C127.396 30.2702 128.079 29.6368 128.779 29.0336Z" fill="#FB9902"/>
<path fill-rule="evenodd" clip-rule="evenodd" d="M83.2428 96.4277C83.2428 96.5603 83.2955 96.6875 83.3892 96.7813L100.068 113.46C100.263 113.655 100.58 113.655 100.775 113.46L126.282 87.953C126.488 87.7474 126.475 87.4107 126.257 87.218C125.646 86.677 125.048 86.1141 124.463 85.5293C108.842 69.9083 108.842 44.5817 124.463 28.9607C125.048 28.3759 125.646 27.813 126.257 27.272C126.475 27.0793 126.488 26.7426 126.282 26.537L100.775 1.03001C100.58 0.834745 100.263 0.834745 100.068 1.03001L83.3892 17.7087C83.2955 17.8025 83.2428 17.9297 83.2428 18.0623V96.4277Z" fill="#0E668B"/>
<path fill-rule="evenodd" clip-rule="evenodd" d="M79.5608 21.5371C79.8758 21.2222 80.4144 21.4453 80.4144 21.8907V92.5993C80.4144 93.0447 79.8758 93.2678 79.5608 92.9528L44.2065 57.5985C44.0113 57.4033 44.0113 57.0867 44.2065 56.8914L79.5608 21.5371Z" fill="#FB9902"/>
<path d="M78.1464 17.8536C78.4614 17.5386 78.2383 17 77.7929 17H0.5C0.223858 17 0 17.2239 0 17.5V96.5C0 96.7761 0.223858 97 0.5 97H77.7929C78.2383 97 78.4614 96.4614 78.1464 96.1464L39.3536 57.3536C39.1583 57.1583 39.1583 56.8417 39.3536 56.6464L78.1464 17.8536Z" fill="#C53939"/>
</svg>
