<?xml version="1.0" encoding="UTF-8"?>
<svg id="Layer_2" data-name="Layer 2" xmlns="http://www.w3.org/2000/svg" xmlns:xlink="http://www.w3.org/1999/xlink" viewBox="0 0 442.62 221.89">
  <defs>
    <style>
      .cls-1, .cls-2, .cls-3, .cls-4, .cls-5, .cls-6, .cls-7, .cls-8 {
        stroke-width: 0px;
      }

      .cls-1, .cls-9 {
        fill: #010101;
      }

      .cls-10 {
        clip-path: url(#clippath);
      }

      .cls-2 {
        fill: none;
      }

      .cls-9 {
        font-family: DupletOpen-Bold, 'Duplet Open';
        font-size: 39.83px;
        font-weight: 700;
      }

      .cls-3 {
        fill: url(#linear-gradient);
      }

      .cls-4 {
        fill: #4d4d4d;
      }

      .cls-5 {
        fill: url(#linear-gradient-4);
      }

      .cls-6 {
        fill: url(#linear-gradient-2);
      }

      .cls-7 {
        fill: url(#linear-gradient-3);
      }

      .cls-8 {
        fill: url(#linear-gradient-5);
      }

      .cls-11 {
        letter-spacing: -.02em;
      }

      .cls-12 {
        letter-spacing: 0em;
      }
    </style>
    <linearGradient id="linear-gradient" x1="404.92" y1="184.21" x2="429.68" y2="165.56" gradientUnits="userSpaceOnUse">
      <stop offset="0" stop-color="#9b9b9b"/>
      <stop offset=".22" stop-color="#969696"/>
      <stop offset=".48" stop-color="#888"/>
      <stop offset=".75" stop-color="#727271"/>
      <stop offset="1" stop-color="#575756"/>
    </linearGradient>
    <linearGradient id="linear-gradient-2" x1="398.82" y1="216.28" x2="428.78" y2="193.66" xlink:href="#linear-gradient"/>
    <linearGradient id="linear-gradient-3" x1="286.14" y1="28.38" x2="242.69" y2="114.9" xlink:href="#linear-gradient"/>
    <linearGradient id="linear-gradient-4" x1="224.07" y1="122.14" x2="238.97" y2="41.3" xlink:href="#linear-gradient"/>
    <clipPath id="clippath">
      <path class="cls-2" d="M231.52,28.59v108.05h69.75V28.59h-69.75ZM246.63,56.25c-1.42.03-2.82.18-4.18.43-5.6-1.67-9.79-6.84-9.93-12.94-.12-5.51,3.01-10.34,7.64-12.66,1.94-.26,3.91-.43,5.89-.48,7.03-.16,12.95,5.45,13.11,12.53.16,7.08-5.45,12.95-12.53,13.11Z"/>
    </clipPath>
    <linearGradient id="linear-gradient-5" x1="286.14" y1="28.38" x2="242.69" y2="114.9" xlink:href="#linear-gradient"/>
  </defs>
  <g id="Layer_1-2" data-name="Layer 1">
    <g>
      <g>
        <text class="cls-9" transform="translate(245.1 213.69)"><tspan class="cls-11" x="0" y="0">b</tspan><tspan class="cls-12" x="23.1" y="0">y</tspan></text>
        <g>
          <path class="cls-1" d="M301.72,160.16h12.83l13.57,18.77,14.08-18.77h12.1v53.53h-12.76v-33l-13.49,18.19-13.57-18.26v33.07h-12.76v-53.53Z"/>
          <polygon class="cls-1" points="358.54 160.16 358.54 171.87 373.67 171.87 373.67 213.69 386.5 213.69 386.5 171.87 401.62 171.87 401.62 160.16 358.54 160.16"/>
          <g>
            <path class="cls-3" d="M418.62,191.27c-11.42-3.02-15.09-10.73-14.71-16.93.47-7.74,6.78-13.98,15.34-15.17,13.12-1.83,21.3,9.05,21.64,9.52l-9.66,7.1.03.04c-.18-.23-4.37-5.62-10.36-4.79-3.17.44-4.93,2.36-5.03,4.02-.11,1.87,2.15,3.58,5.85,4.56l-3.11,11.65Z"/>
            <path class="cls-6" d="M421.43,179.54c-3.22-.83-6.51,1.11-7.34,4.33-.83,3.22,1.11,6.51,4.33,7.34,7.16,1.85,10.1,3.67,11.31,4.88.67.67,1.12,1.82.67,3.1-.35.99-2.18,2.76-5.8,3.36-4.27.71-9.97-.38-13.15-5.59-.07-.12-.15-.23-.23-.34l-9.65,7.24c4.52,6.91,12.26,10.94,20.64,10.94,1.44,0,2.9-.12,4.37-.36,8.19-1.36,14.16-6.21,15.59-12.64,3.54-15.99-14.73-20.71-20.74-22.26Z"/>
          </g>
        </g>
      </g>
      <g>
        <path class="cls-1" d="M0,0h42.04c29.87,0,47.21,13.28,47.21,37.8,0,11.25-4.98,20.29-14.57,26,12.36,5.72,19.36,16.04,19.36,30.8,0,26.74-18.63,40.02-48.5,40.02H0V0ZM25.63,23.6v29.87h16.41c15.86,0,21.39-6.27,21.39-15.68s-6.09-14.2-21.21-14.2h-16.6ZM25.63,77.45v33.56h19.92c14.94,0,22.68-6.09,22.68-16.97s-5.16-16.6-23.97-16.6h-18.63Z"/>
        <path class="cls-1" d="M94.05,42.41h15.67v-2.4C109.72,9.96,119.5,0,150.29,0h2.03v23.6c-15.49,0-17.33,2.21-17.33,16.6v2.21h17.33v22.68h-17.33v69.52h-25.26v-69.52h-15.67v-22.68Z"/>
        <path class="cls-1" d="M186.47,0v134.62h-25.26V0h25.26Z"/>
        <g>
          <path class="cls-7" d="M248.12,134.64c-6.95,0-12.66-5.55-12.82-12.53-.16-7.08,5.45-12.95,12.53-13.11,7.04-.16,13.6-3.05,18.47-8.15,4.87-5.09,7.46-11.78,7.3-18.82-.16-7.05-3.05-13.61-8.15-18.47-5.09-4.87-11.76-7.46-18.82-7.3-.1,0-.2,0-.3,0-6.95,0-12.66-5.55-12.82-12.53-.16-7.08,5.45-12.95,12.53-13.11,13.9-.32,27.08,4.8,37.13,14.4,10.05,9.6,15.76,22.54,16.07,36.44.32,13.89-4.8,27.08-14.4,37.13-9.6,10.05-22.54,15.76-36.44,16.07-.1,0-.2,0-.3,0Z"/>
          <path class="cls-5" d="M247.22,134.65c-28.15,0-51.36-22.56-52-50.85-.32-13.89,4.8-27.08,14.4-37.13,9.6-10.05,22.54-15.76,36.44-16.07,7.03-.16,12.95,5.45,13.11,12.53.16,7.08-5.45,12.95-12.53,13.11-7.04.16-13.6,3.05-18.47,8.15-4.87,5.09-7.46,11.78-7.3,18.82.33,14.34,12.1,25.78,26.36,25.78.2,0,.41,0,.61,0,7.04-.15,12.95,5.45,13.11,12.53.16,7.08-5.45,12.95-12.53,13.11-.4,0-.8.01-1.2.01Z"/>
          <g class="cls-10">
            <path class="cls-8" d="M248.12,134.64c-6.95,0-12.66-5.55-12.82-12.53-.16-7.08,5.45-12.95,12.53-13.11,7.04-.16,13.6-3.05,18.47-8.15,4.87-5.09,7.46-11.78,7.3-18.82-.16-7.05-3.05-13.61-8.15-18.47-5.09-4.87-11.76-7.46-18.82-7.3-.1,0-.2,0-.3,0-6.95,0-12.66-5.55-12.82-12.53-.16-7.08,5.45-12.95,12.53-13.11,13.9-.32,27.08,4.8,37.13,14.4,10.05,9.6,15.76,22.54,16.07,36.44.32,13.89-4.8,27.08-14.4,37.13-9.6,10.05-22.54,15.76-36.44,16.07-.1,0-.2,0-.3,0Z"/>
          </g>
        </g>
        <circle class="cls-4" cx="247.41" cy="121.81" r="12.81"/>
        <circle class="cls-4" cx="247.41" cy="43.41" r="12.81"/>
        <polygon class="cls-1" points="416.4 32.35 398.2 94.88 379.59 32.35 358.93 32.35 340.18 94.88 322.12 32.35 296.11 32.35 326.07 134.69 352.22 134.69 368.97 76.09 385.71 134.69 411.87 134.69 441.98 32.35 416.4 32.35"/>
      </g>
    </g>
  </g>
</svg>