<?xml version="1.0" encoding="UTF-8"?>
<svg id="Layer_2" data-name="Layer 2" xmlns="http://www.w3.org/2000/svg" xmlns:xlink="http://www.w3.org/1999/xlink" viewBox="0 0 458.54 139.7">
  <defs>
    <style>
      .cls-1 {
        fill: #aeaeae;
      }

      .cls-1, .cls-2, .cls-3, .cls-4, .cls-5 {
        stroke-width: 0px;
      }

      .cls-6 {
        clip-path: url(#clippath);
      }

      .cls-2 {
        fill: none;
      }

      .cls-3 {
        fill: url(#linear-gradient);
      }

      .cls-4 {
        fill: url(#linear-gradient-2);
      }

      .cls-5 {
        fill: #fff;
      }
    </style>
    <linearGradient id="linear-gradient" x1="294.36" y1="40.97" x2="249.6" y2="115.77" gradientUnits="userSpaceOnUse">
      <stop offset="0" stop-color="#fff"/>
      <stop offset=".23" stop-color="#fafafa"/>
      <stop offset=".5" stop-color="#ececec"/>
      <stop offset=".79" stop-color="#d6d5d5"/>
      <stop offset="1" stop-color="#c0bfbf"/>
    </linearGradient>
    <linearGradient id="linear-gradient-2" x1="227.29" y1="120.09" x2="262.24" y2="49.58" gradientUnits="userSpaceOnUse">
      <stop offset="0" stop-color="#fff"/>
      <stop offset=".29" stop-color="#fbfbfb"/>
      <stop offset=".52" stop-color="#f2f1f1"/>
      <stop offset=".73" stop-color="#e1e1e1"/>
      <stop offset=".93" stop-color="#cac9c9"/>
      <stop offset="1" stop-color="#c0bfbf"/>
    </linearGradient>
    <clipPath id="clippath">
      <path class="cls-2" d="M240.27,29.74v111.95h72.21V29.74h-72.21ZM255.88,58.36c-1.44.03-2.86.18-4.26.43-5.84-1.71-10.2-7.07-10.35-13.41-.09-3.82,1.32-7.45,3.96-10.21,1.18-1.23,2.54-2.21,4.02-2.94,1.98-.26,3.99-.43,6.02-.48,7.3-.17,13.44,5.65,13.6,13s-5.65,13.44-13,13.61Z"/>
    </clipPath>
  </defs>
  <g id="Layer_1-2" data-name="Layer 1">
    <g>
      <path class="cls-5" d="M0,0h43.62c30.99,0,48.98,13.77,48.98,39.22,0,11.67-5.16,21.05-15.11,26.98,12.82,5.93,20.09,16.65,20.09,31.95,0,27.74-19.32,41.52-50.32,41.52H0V0ZM26.59,24.49v30.99h17.03c16.45,0,22.19-6.51,22.19-16.26s-6.31-14.73-22-14.73h-17.22ZM26.59,80.35v34.82h20.66c15.5,0,23.53-6.31,23.53-17.6s-5.36-17.22-24.87-17.22h-19.32Z"/>
      <path class="cls-5" d="M97.57,44h16.26v-2.49C113.84,10.33,123.98,0,155.93,0h2.1v24.49c-16.07,0-17.98,2.29-17.98,17.22v2.29h17.98v23.53h-17.98v72.13h-26.21v-72.13h-16.26v-23.53Z"/>
      <path class="cls-5" d="M193.46,0v139.66h-26.21V0h26.21Z"/>
      <g>
        <path class="cls-3" d="M257.42,139.69c-7.21,0-13.13-5.76-13.3-13-.17-7.35,5.65-13.44,13-13.61,7.31-.17,14.11-3.17,19.16-8.45,5.05-5.29,7.74-12.22,7.57-19.53-.17-7.31-3.17-14.12-8.45-19.17-5.28-5.05-12.2-7.74-19.53-7.57-.1,0-.21,0-.31,0-7.21,0-13.13-5.76-13.3-13-.17-7.35,5.65-13.44,13-13.61,14.42-.33,28.09,4.98,38.52,14.94,10.43,9.96,16.35,23.39,16.67,37.8.33,14.41-4.98,28.09-14.94,38.52-9.96,10.43-23.39,16.35-37.8,16.68-.1,0-.21,0-.31,0Z"/>
        <path class="cls-4" d="M256.48,139.7c-29.2,0-53.28-23.41-53.95-52.75-.33-14.42,4.98-28.1,14.94-38.52,9.96-10.43,23.39-16.35,37.8-16.67,7.3-.17,13.44,5.65,13.6,13,.17,7.35-5.65,13.44-13,13.61-7.31.17-14.11,3.17-19.16,8.45-5.05,5.29-7.74,12.22-7.57,19.53.34,14.88,12.55,26.75,27.35,26.75.21,0,.42,0,.63,0,7.3-.15,13.44,5.65,13.6,13,.17,7.35-5.65,13.44-13,13.61-.41,0-.83.01-1.24.01Z"/>
        <g class="cls-6">
          <path class="cls-3" d="M257.42,139.69c-7.21,0-13.13-5.76-13.3-13-.17-7.35,5.65-13.44,13-13.61,7.31-.17,14.11-3.17,19.16-8.45,5.05-5.29,7.74-12.22,7.57-19.53-.17-7.31-3.17-14.12-8.45-19.17-5.28-5.05-12.2-7.74-19.53-7.57-.1,0-.21,0-.31,0-7.21,0-13.13-5.76-13.3-13-.17-7.35,5.65-13.44,13-13.61,14.42-.33,28.09,4.98,38.52,14.94,10.43,9.96,16.35,23.39,16.67,37.8.33,14.41-4.98,28.09-14.94,38.52-9.96,10.43-23.39,16.35-37.8,16.68-.1,0-.21,0-.31,0Z"/>
        </g>
      </g>
      <circle class="cls-1" cx="256.69" cy="126.38" r="13.29"/>
      <circle class="cls-1" cx="256.69" cy="45.04" r="13.29"/>
      <polygon class="cls-5" points="432.01 33.52 413.13 98.39 393.82 33.52 372.38 33.52 352.93 98.39 334.19 33.52 307.2 33.52 338.29 139.7 365.43 139.7 382.8 78.9 400.17 139.7 427.31 139.7 458.54 33.52 432.01 33.52"/>
    </g>
  </g>
</svg>