<svg class="svg-icon" style="width: 1em; height: 1em;vertical-align: middle;fill: currentColor;overflow: hidden;" viewBox="0 0 1024 1024" version="1.1" xmlns="http://www.w3.org/2000/svg"><path d="M513.6 704H224V235.2h574.4V560c12.8 12.8 24 27.2 32 43.2v-400H192V736h329.6c-3.2-9.6-6.4-20.8-8-32z" fill="rgb(255,0,0)" /><path d="M436.8 300.8h-3.2c-78.4 0-142.4 64-142.4 142.4v3.2c0 78.4 64 142.4 142.4 142.4h3.2c78.4 0 142.4-64 142.4-142.4v-3.2c0-80-64-142.4-142.4-142.4z m-38.4 120v-16c0-22.4 17.6-40 40-40s40 17.6 40 40v16c0 22.4-17.6 40-40 40s-40-17.6-40-40z m14.4 49.6c8 3.2 16 6.4 24 6.4s17.6-1.6 24-6.4c35.2 9.6 60.8 35.2 60.8 65.6h1.6c-22.4 20.8-52.8 33.6-84.8 33.6h-3.2c-32 0-62.4-12.8-84.8-33.6h1.6c-1.6-30.4 25.6-57.6 60.8-65.6z m150.4-25.6c0 28.8-9.6 56-27.2 78.4-6.4-28.8-28.8-52.8-57.6-64 9.6-9.6 14.4-22.4 14.4-36.8v-16c0-30.4-25.6-56-56-56s-56 25.6-56 56v16c0 14.4 6.4 27.2 14.4 36.8-30.4 11.2-54.4 35.2-59.2 64-17.6-20.8-27.2-48-27.2-78.4v-3.2c0-68.8 56-126.4 126.4-126.4h3.2c68.8 0 126.4 56 126.4 126.4v3.2zM520 628.8H305.6v16h209.6c1.6-4.8 3.2-9.6 4.8-16zM782.4 748.8c14.4-19.2 22.4-43.2 22.4-68.8 0-67.2-54.4-120-120-120s-120 54.4-120 120 54.4 120 120 120c28.8 0 56-11.2 76.8-27.2l72 72 22.4-22.4-73.6-73.6zM683.2 768c-48 0-88-40-88-88s40-88 88-88c49.6 0 88 40 88 88S732.8 768 683.2 768z" fill="rgb(255,0,0)" /></svg>