<?xml version="1.0" encoding="UTF-8"?>
<svg id="Layer_2" data-name="Layer 2" xmlns="http://www.w3.org/2000/svg" xmlns:xlink="http://www.w3.org/1999/xlink" viewBox="0 0 371.59 147.3">
  <defs>
    <style>
      .cls-1 {
        fill: url(#linear-gradient);
      }

      .cls-1, .cls-2, .cls-3 {
        stroke-width: 0px;
      }

      .cls-2 {
        fill: url(#linear-gradient-2);
      }

      .cls-3 {
        fill: #fff;
      }
    </style>
    <linearGradient id="linear-gradient" x1="282.6" y1="59.63" x2="335.72" y2="16.31" gradientUnits="userSpaceOnUse">
      <stop offset="0" stop-color="#fff"/>
      <stop offset=".22" stop-color="#f8f8f8"/>
      <stop offset=".53" stop-color="#e7e6e6"/>
      <stop offset=".89" stop-color="#cac9c9"/>
      <stop offset="1" stop-color="#c0bfbf"/>
    </linearGradient>
    <linearGradient id="linear-gradient-2" x1="284.2" y1="154.68" x2="337.32" y2="86.03" gradientUnits="userSpaceOnUse">
      <stop offset="0" stop-color="#fff"/>
      <stop offset=".23" stop-color="#fafafa"/>
      <stop offset=".5" stop-color="#ececec"/>
      <stop offset=".79" stop-color="#d6d5d5"/>
      <stop offset="1" stop-color="#c0bfbf"/>
    </linearGradient>
  </defs>
  <g id="Layer_1-2" data-name="Layer 1">
    <g>
      <path class="cls-3" d="M0,3.17h33.84l35.78,49.51L106.76,3.17h31.91v141.18h-33.65V57.32l-35.59,47.96-35.78-48.16v87.22H0V3.17Z"/>
      <polygon class="cls-3" points="149.86 3.17 149.86 34.07 189.74 34.07 189.74 144.35 223.59 144.35 223.59 34.07 263.47 34.07 263.47 3.17 149.86 3.17"/>
      <g>
        <path class="cls-1" d="M308.3,85.21c-30.11-7.97-39.79-28.3-38.8-44.66,1.23-20.41,17.87-36.87,40.46-40.01,34.61-4.82,56.17,23.88,57.07,25.1l-25.47,18.74.08.11c-.46-.61-11.54-14.83-27.32-12.63-8.35,1.16-13,6.21-13.26,10.6-.3,4.93,5.68,9.45,15.43,12.03l-8.2,30.72Z"/>
        <path class="cls-2" d="M315.71,54.29c-8.5-2.19-17.17,2.92-19.36,11.42-2.19,8.5,2.92,17.17,11.42,19.36,18.89,4.87,26.65,9.69,29.83,12.86,1.77,1.77,2.96,4.8,1.77,8.18-.92,2.61-5.75,7.28-15.29,8.87-11.26,1.88-26.29-1.01-34.67-14.75-.19-.31-.4-.6-.61-.89l-25.44,19.1c11.92,18.22,32.33,28.86,54.43,28.86,3.8,0,7.65-.31,11.52-.96,21.59-3.6,37.34-16.37,41.1-33.34,9.35-42.17-38.85-54.61-54.69-58.7Z"/>
      </g>
    </g>
  </g>
</svg>